<svg width="120" height="120" viewBox="0 0 120 120" fill="none" xmlns="http://www.w3.org/2000/svg">
<path d="M95.3124 27.6378L94.5999 32.9128L90.8374 61.0253L89.7249 69.3378L87.3999 86.7128L85.8624 98.2003L84.7499 106.45L75.2124 105.175L67.1249 104.088L65.3874 103.85L39.6249 100.4L36.2874 99.9503L35.2999 99.8128L34.3499 99.6878L29.2499 99.0003L27.9874 98.8378L23.5999 98.2503L23.3499 98.2128H23.3124L23.3249 98.1628L23.6874 95.5378L23.7249 95.2128L24.7999 87.2503L32.5374 29.4378L32.8999 26.7378L33.3249 23.6503L33.8874 19.4128L42.3624 20.5378L44.2499 20.8003L70.6249 24.3253L78.6874 25.4128L89.8499 26.9128L95.3124 27.6378Z" fill="#C2E2FF"/>
<path d="M59.9375 81.525C70.7692 81.525 79.55 72.7442 79.55 61.9125C79.55 51.0808 70.7692 42.3 59.9375 42.3C49.1058 42.3 40.325 51.0808 40.325 61.9125C40.325 72.7442 49.1058 81.525 59.9375 81.525Z" fill="white"/>
<path d="M44.5122 64.137C45.3097 65.3547 45.6384 66.8203 45.4372 68.262C45.0356 71.1404 42.6326 73.3195 39.7287 73.4385C36.8249 73.5576 34.2516 71.5825 33.6156 68.7467C32.9797 65.9108 34.4633 63.026 37.1399 61.8937C39.8165 60.7614 42.92 61.7057 44.5122 64.137ZM74.4833 48.4221C75.53 48.2524 76.5807 48.7639 77.0872 49.712C77.6477 50.715 78.1604 51.7437 78.6239 52.7946L78.9622 53.587L84.1622 50.6245L86.9747 59.487L78.2997 64.487L74.0622 56.2495L75.5372 55.5495L74.2872 48.462L74.4833 48.4221Z" fill="#FFB6AC"/>
<path d="M44.5124 64.1379L34.0749 70.0004C32.6923 67.1471 33.7683 63.7106 36.5313 62.1553C39.2943 60.6001 42.7905 61.4631 44.5124 64.1254V64.1379ZM58.2749 75.6004L65.3874 103.85L39.6249 100.4L36.2499 100L35.2624 99.8629L34.3249 99.7379L29.2499 99.0004L27.9999 98.8379L23.6124 98.2504H23.3624L23.7249 95.6254V95.3004L24.7999 87.3379C27.0439 82.5866 30.7735 78.6947 35.4249 76.2504L75.4249 55.4004L80.2874 63.5629L58.2749 75.6004Z" fill="#116DFF"/>
<path d="M45.85 83.6875L47.7374 92.95L43.4124 95.2375L40.3875 91.9625L39.2 87.1125L45.85 83.6875Z" fill="#FFB6AC"/>
<path d="M43.3876 95.625L35.3001 99.8125L34.3501 99.6875L29.2501 99L27.9876 98.8375L23.6001 98.25L23.3501 98.2125L23.3251 98.1625L23.6876 95.5375L23.7251 95.2125L39.0501 87.25L39.0626 87.2375L39.3876 87.875L39.4001 87.8875L41.1501 91.325L42.8751 94.6375L42.8876 94.6625L42.9001 94.675L43.2001 95.25L43.3876 95.625Z" fill="#116DFF"/>
<path d="M90.2313 96.4486L94.4 103.669L76.8089 113.825L72.6401 106.605L90.2313 96.4486ZM41.3543 11.7896L45.523 19.01L27.9319 29.1663L23.7631 21.9458L41.3543 11.7896Z" fill="#FFD527"/>
<path d="M43.1251 95.125L43.3876 95.625L43.6376 96.125L36.2876 99.95L35.3001 99.8125L34.3501 99.6875L43.1251 95.125ZM51.6502 59.464L52.2612 60.5546L34.3877 70.5683L33.7767 69.4778L51.6502 59.464ZM80.5483 53.0046L82.5896 60.1565L81.3876 60.4995L79.3463 53.3477L80.5483 53.0046ZM58.0251 27.5125C58.4501 27.675 58.9626 28.1125 58.9876 29.2875C59.0501 32.2125 55.8626 39.2875 50.2376 45.15C50.2611 45.2352 50.2904 45.3187 50.3251 45.4C50.7596 46.8857 51.9825 48.0075 53.5001 48.3125C55.3751 48.575 57.5251 47.3625 59.6376 44.8625C59.4211 43.79 59.4211 42.685 59.6376 41.6125C60.3751 36.725 62.2001 34.2375 63.6751 33.9375C64.2737 33.7999 64.8921 34.0685 65.2001 34.6C66.1126 36.0625 65.2751 39.7625 61.3626 44.7625L61.0876 45.125C61.2694 45.5333 61.5699 45.8774 61.9501 46.1125C64.1751 47.4875 69.2751 45.45 72.9501 42.85L73.6751 43.875C69.7001 46.6875 64.1251 48.875 61.2876 47.175C60.8605 46.9127 60.4975 46.5582 60.2251 46.1375C57.9376 48.6375 55.5376 49.8875 53.3626 49.55C51.5007 49.2074 49.9596 47.9041 49.3126 46.125C46.5524 48.8933 43.3068 51.1305 39.7376 52.725L39.2376 51.5875C42.843 49.9557 46.102 47.6473 48.8376 44.7875C47.9876 41.3375 48.6751 35.8875 53.2126 30.375C55.4376 28 56.9626 27.1 58.0251 27.5125ZM57.5751 28.675L57.4411 28.6783C57.1306 28.711 56.1983 29.022 54.1501 31.175C50.2626 35.8875 49.4001 40.5 49.8876 43.675C54.8876 38.175 57.8001 31.9 57.7376 29.3125C57.7376 28.875 57.6251 28.7 57.5751 28.675ZM63.9751 35.15H63.9001C63.2126 35.2875 61.5626 37.1 60.8376 41.7875C60.7543 42.3544 60.7167 42.9271 60.7251 43.5C64.4751 38.5 64.4751 35.8 64.1126 35.25C64.0626 35.175 64.0251 35.15 63.9751 35.15ZM71.1001 37.3L72.1251 38.0125C71.7139 38.5892 71.2628 39.1364 70.7751 39.65L69.8501 38.8125C70.2975 38.3346 70.715 37.8295 71.1001 37.3Z" fill="#192C55"/>
</svg>
